<mxfile host="app.diagrams.net" modified="2024-03-04T02:01:31.377Z" agent="Mozilla/5.0 (Windows NT 10.0; Win64; x64; rv:123.0) Gecko/20100101 Firefox/123.0" version="23.1.7" etag="n5yOop_vHzmZST592Chc" type="github">
  <diagram name="第 1 页" id="Farywq133jAkmJhaP7cw">
    <mxGraphModel>
      <root>
        <mxCell id="0" />
        <mxCell id="1" parent="0" />
      </root>
    </mxGraphModel>
  </diagram>
</mxfile>
